<?xml version="1.0" encoding="UTF-8"?>
<svg id="Layer_1" data-name="Layer 1" xmlns="http://www.w3.org/2000/svg" viewBox="0 0 486.67 336.91">
  <defs>
    <style>
      .cls-1 {
        fill: #164e59;
      }

      .cls-2 {
        fill: #bfb5aa;
      }

      .cls-3 {
        fill: #367d84;
      }
    </style>
  </defs>
  <g>
    <path class="cls-3" d="M5.04,183.45c-2.74-2.74-4.11-6.46-4.11-11.16v-89.81c0-4.59,1.23-8.11,3.69-10.58,2.46-2.46,5.99-3.69,10.58-3.69h42.97c13.09,0,23.28,3.33,30.55,9.99,7.27,6.66,10.91,15.92,10.91,27.78s-3.67,20.98-11,27.7c-7.33,6.71-17.49,10.07-30.47,10.07h-26.35v28.54c0,4.7-1.4,8.42-4.2,11.16-2.8,2.74-6.6,4.11-11.41,4.11s-8.42-1.37-11.16-4.11ZM53.97,120.59c5.71,0,9.93-1.18,12.67-3.53,2.74-2.35,4.11-5.99,4.11-10.91,0-9.74-5.6-14.6-16.79-14.6h-22.16v29.04h22.16Z"/>
    <path class="cls-3" d="M172.31,104.89c2.24,2.07,3.36,5.12,3.36,9.15,0,4.48-1.04,7.72-3.11,9.74-2.07,2.01-5.79,3.3-11.16,3.86l-5.04.5c-5.6.67-9.6,2.43-12,5.29-2.41,2.85-3.61,6.74-3.61,11.67v28.7c0,4.59-1.43,8.03-4.28,10.32-2.85,2.3-6.41,3.44-10.66,3.44s-7.81-1.15-10.66-3.44c-2.85-2.29-4.28-5.73-4.28-10.32v-58.08c0-4.25,1.43-7.55,4.28-9.9,2.85-2.35,6.29-3.53,10.32-3.53s7.47,1.12,9.99,3.36c2.52,2.24,3.78,5.37,3.78,9.4v3.19c1.79-4.92,4.73-8.73,8.81-11.42,4.08-2.69,8.36-4.14,12.84-4.36l2.35-.17c3.8-.34,6.82.53,9.06,2.6Z"/>
    <path class="cls-3" d="M252.97,163.06c1.62,2.01,2.43,4.65,2.43,7.89,0,4.48-2.18,7.89-6.55,10.24-3.81,1.9-8.31,3.5-13.51,4.78-5.2,1.29-9.99,1.93-14.35,1.93-9.18,0-17.18-1.73-24-5.2-6.83-3.47-12.09-8.45-15.78-14.94-3.69-6.49-5.54-14.1-5.54-22.83,0-8.28,1.76-15.7,5.29-22.24,3.53-6.55,8.45-11.64,14.77-15.28,6.32-3.64,13.46-5.46,21.4-5.46s14.49,1.68,20.31,5.04c5.82,3.36,10.32,8.12,13.51,14.27,3.19,6.16,4.78,13.37,4.78,21.65,0,2.58-.59,4.56-1.76,5.96-1.17,1.4-2.88,2.1-5.12,2.1h-44.32c.78,5.37,2.52,9.23,5.2,11.58s6.66,3.53,11.92,3.53c2.8,0,5.37-.31,7.72-.92,2.35-.61,4.98-1.48,7.89-2.6,1.68-.67,3.33-1.26,4.95-1.76,1.62-.5,3.11-.76,4.45-.76,2.57,0,4.67,1.01,6.29,3.02ZM208.57,125.88c-2.35,2.52-3.75,6.18-4.2,11h26.35c-.67-9.85-4.93-14.77-12.76-14.77-3.92,0-7.05,1.26-9.4,3.78Z"/>
  </g>
  <g>
    <path class="cls-2" d="M87.22,213.04c5.41,6.61,8.12,16.64,8.12,30.11v40.78c0,4.78-1.51,8.56-4.53,11.33-3.02,2.77-7.11,4.15-12.27,4.15s-9.25-1.38-12.27-4.15c-3.02-2.77-4.53-6.54-4.53-11.33v-39.27c0-5.54-.98-9.56-2.93-12.08-1.95-2.52-4.88-3.78-8.78-3.78-5.04,0-9.03,1.6-11.99,4.81-2.96,3.21-4.44,7.52-4.44,12.93v37.38c0,4.78-1.51,8.56-4.53,11.33-3.02,2.77-7.11,4.15-12.27,4.15s-9.25-1.38-12.27-4.15c-3.02-2.77-4.53-6.54-4.53-11.33v-65.32c0-4.4,1.57-8.02,4.72-10.85,3.14-2.83,7.24-4.25,12.27-4.25s8.59,1.32,11.42,3.96c2.83,2.64,4.25,6.11,4.25,10.38,3.27-4.78,7.49-8.43,12.65-10.95,5.16-2.52,10.88-3.78,17.18-3.78,11.07,0,19.32,3.3,24.73,9.91Z"/>
    <path class="cls-2" d="M189.25,213.42c6.86,6.86,10.29,17.27,10.29,31.24v39.46c0,4.78-1.42,8.53-4.25,11.23-2.83,2.71-6.77,4.06-11.8,4.06-4.41,0-8.02-1.26-10.85-3.78-2.83-2.52-4.37-5.91-4.62-10.19-1.76,4.53-4.72,8.06-8.87,10.57-4.15,2.52-9.13,3.78-14.91,3.78-6.42,0-12.21-1.29-17.37-3.87-5.16-2.58-9.22-6.16-12.18-10.76-2.96-4.59-4.44-9.78-4.44-15.57,0-6.67,1.73-11.99,5.19-15.95,3.46-3.96,8.97-6.83,16.52-8.59,7.55-1.76,17.75-2.64,30.58-2.64h5.1v-2.27c0-4.4-1.01-7.58-3.02-9.53-2.01-1.95-5.41-2.93-10.19-2.93-5.16,0-12.71,1.76-22.65,5.29-2.9,1.01-5.35,1.51-7.36,1.51-3.15,0-5.66-1.13-7.55-3.4-1.89-2.27-2.83-5.22-2.83-8.87,0-2.77.57-5.03,1.7-6.8,1.13-1.76,2.96-3.33,5.47-4.72,4.4-2.27,9.94-4.09,16.61-5.47,6.67-1.38,13.21-2.08,19.63-2.08,14.35,0,24.95,3.43,31.81,10.29ZM163.29,272.51c2.89-3.21,4.34-7.33,4.34-12.37v-2.27h-3.02c-8.05,0-13.78.73-17.18,2.17-3.4,1.45-5.1,3.87-5.1,7.27,0,2.9.91,5.29,2.74,7.17,1.82,1.89,4.18,2.83,7.08,2.83,4.53,0,8.24-1.6,11.14-4.81Z"/>
    <path class="cls-2" d="M227.29,286.95c-8.81-8.56-13.21-20.2-13.21-34.92,0-9.69,2.14-18.25,6.42-25.67,4.28-7.42,10.29-13.15,18.03-17.18,7.74-4.03,16.58-6.04,26.52-6.04,5.29,0,10.57.69,15.86,2.08,5.29,1.39,9.94,3.34,13.97,5.85,3.9,2.39,5.85,6.04,5.85,10.95,0,3.9-.91,7.08-2.74,9.53-1.83,2.45-4.19,3.68-7.08,3.68-1.89,0-3.71-.28-5.47-.85-1.76-.57-3.71-1.42-5.85-2.55-2.52-1.13-4.66-1.98-6.42-2.55-1.76-.57-3.71-.85-5.85-.85-12.46,0-18.69,7.62-18.69,22.84,0,7.55,1.6,13.31,4.81,17.27,3.21,3.96,7.83,5.95,13.88,5.95,2.14,0,4.12-.28,5.95-.85,1.82-.57,3.87-1.42,6.14-2.55,2.52-1.13,4.56-1.98,6.14-2.55,1.57-.57,3.3-.85,5.19-.85,2.89,0,5.25,1.23,7.08,3.68,1.82,2.45,2.74,5.63,2.74,9.53,0,2.39-.5,4.56-1.51,6.51-1.01,1.95-2.39,3.43-4.15,4.44-8.68,5.29-19.26,7.93-31.72,7.93-15.1,0-27.06-4.28-35.87-12.84Z"/>
    <path class="cls-2" d="M395.4,271.84c1.82,2.27,2.74,5.22,2.74,8.87,0,5.04-2.45,8.87-7.36,11.52-4.28,2.14-9.34,3.93-15.2,5.38-5.85,1.45-11.23,2.17-16.14,2.17-10.32,0-19.32-1.95-27-5.85-7.68-3.9-13.59-9.5-17.75-16.8-4.15-7.3-6.23-15.86-6.23-25.67,0-9.31,1.98-17.65,5.95-25.01,3.96-7.36,9.5-13.09,16.61-17.18,7.11-4.09,15.13-6.14,24.07-6.14s16.3,1.89,22.84,5.66c6.54,3.78,11.61,9.13,15.2,16.05,3.59,6.92,5.38,15.04,5.38,24.35,0,2.9-.66,5.13-1.98,6.7-1.32,1.58-3.24,2.36-5.76,2.36h-49.84c.88,6.04,2.83,10.38,5.85,13.03,3.02,2.64,7.49,3.96,13.4,3.96,3.14,0,6.04-.34,8.68-1.04,2.64-.69,5.6-1.67,8.87-2.93,1.89-.76,3.74-1.42,5.57-1.98,1.82-.57,3.49-.85,5-.85,2.89,0,5.25,1.13,7.08,3.4ZM345.47,230.03c-2.64,2.83-4.22,6.96-4.72,12.36h29.64c-.76-11.07-5.54-16.61-14.35-16.61-4.41,0-7.93,1.42-10.57,4.25Z"/>
    <path class="cls-2" d="M482.9,206.43c2.52,2.33,3.78,5.76,3.78,10.29,0,5.04-1.16,8.68-3.49,10.95-2.33,2.27-6.51,3.71-12.55,4.34l-5.66.57c-6.29.76-10.79,2.74-13.5,5.95-2.71,3.21-4.06,7.58-4.06,13.12v32.28c0,5.16-1.6,9.03-4.81,11.61-3.21,2.58-7.21,3.87-11.99,3.87s-8.78-1.29-11.99-3.87c-3.21-2.58-4.81-6.45-4.81-11.61v-65.32c0-4.78,1.6-8.49,4.81-11.14,3.21-2.64,7.08-3.96,11.61-3.96s8.4,1.26,11.23,3.78c2.83,2.52,4.25,6.04,4.25,10.57v3.59c2.01-5.54,5.32-9.82,9.91-12.84,4.59-3.02,9.41-4.65,14.44-4.91l2.64-.19c4.28-.38,7.68.6,10.19,2.93Z"/>
  </g>
  <g>
    <path class="cls-1" d="M27.17,311.42c.23-.14.47-.21.73-.21.38,0,.72.13,1.02.38.3.25.45.55.45.91,0,.19-.05.38-.14.57l-10.26,22.8c-.14.31-.36.55-.64.71-.29.17-.6.25-.93.25s-.64-.08-.93-.25c-.29-.17-.5-.4-.64-.71l-10.22-22.8c-.07-.19-.11-.37-.11-.54,0-.38.15-.7.46-.95.31-.25.65-.38,1.04-.38.57,0,.99.27,1.25.82l9.22,20.84,9.19-20.84c.12-.26.29-.46.52-.61Z"/>
    <path class="cls-1" d="M32.51,314.64c-.36-.33-.54-.77-.54-1.32s.18-.95.54-1.29c.36-.33.82-.5,1.39-.5s1.04.17,1.39.5c.36.33.54.76.54,1.29s-.18.99-.54,1.32c-.36.33-.82.5-1.39.5s-1.04-.17-1.39-.5ZM32.85,336.46c-.27-.25-.41-.6-.41-1.05v-15.08c0-.45.14-.8.41-1.05.27-.25.63-.38,1.05-.38s.77.13,1.04.38c.26.25.39.6.39,1.05v15.08c0,.48-.13.83-.39,1.07s-.61.36-1.04.36-.78-.12-1.05-.38Z"/>
    <path class="cls-1" d="M54.53,318.93c.36,0,.68.12.96.36.29.24.43.54.43.89,0,.21-.05.41-.14.57l-6.97,15.01c-.14.31-.36.55-.64.73-.29.18-.6.27-.93.27-.31,0-.61-.09-.89-.27-.29-.18-.51-.42-.68-.73l-6.93-15.01c-.1-.17-.14-.34-.14-.54,0-.36.16-.67.48-.93s.67-.39,1.05-.39c.24,0,.47.07.7.21.23.14.4.35.52.61l5.97,13.4,5.97-13.33c.26-.57.68-.86,1.25-.86Z"/>
    <path class="cls-1" d="M59.17,314.64c-.36-.33-.54-.77-.54-1.32s.18-.95.54-1.29c.36-.33.82-.5,1.39-.5s1.04.17,1.39.5c.36.33.54.76.54,1.29s-.18.99-.54,1.32c-.36.33-.82.5-1.39.5s-1.04-.17-1.39-.5ZM59.51,336.46c-.27-.25-.41-.6-.41-1.05v-15.08c0-.45.14-.8.41-1.05.27-.25.63-.38,1.05-.38s.77.13,1.04.38c.26.25.39.6.39,1.05v15.08c0,.48-.13.83-.39,1.07s-.61.36-1.04.36-.78-.12-1.05-.38Z"/>
    <path class="cls-1" d="M77.51,320.11c0,.38-.11.69-.32.91-.21.23-.58.36-1.11.41l-1.07.11c-1.6.14-2.78.71-3.56,1.7-.77.99-1.16,2.15-1.16,3.49v8.69c0,.48-.13.83-.39,1.07s-.61.36-1.04.36-.78-.12-1.05-.38c-.27-.25-.41-.6-.41-1.05v-15.08c0-.45.14-.8.43-1.05.29-.25.63-.38,1.04-.38.38,0,.7.13.96.38.26.25.39.59.39,1.02v2c.5-1.05,1.21-1.85,2.13-2.39.92-.55,1.97-.87,3.16-.97l.5-.04c1-.07,1.5.33,1.5,1.22Z"/>
    <path class="cls-1" d="M92.11,335.8c-1.25-.74-2.22-1.79-2.9-3.15-.68-1.36-1.02-2.93-1.02-4.72s.35-3.37,1.05-4.75c.7-1.38,1.69-2.45,2.95-3.22,1.26-.76,2.72-1.14,4.36-1.14.91,0,1.8.12,2.7.38.89.25,1.67.61,2.34,1.09.43.29.73.57.91.84.18.27.27.58.27.91s-.09.61-.27.82c-.18.21-.41.32-.7.32-.17,0-.35-.05-.54-.14-.19-.1-.35-.19-.48-.29-.13-.09-.22-.15-.27-.18-.62-.4-1.21-.73-1.77-.96-.56-.24-1.25-.36-2.06-.36-1.74,0-3.09.59-4.06,1.77s-1.45,2.82-1.45,4.91.48,3.72,1.45,4.86,2.32,1.72,4.06,1.72c.81,0,1.51-.12,2.09-.36.58-.24,1.17-.56,1.77-.96.26-.17.51-.31.75-.43.24-.12.44-.18.61-.18.26,0,.48.11.66.32.18.21.27.49.27.82,0,.31-.08.59-.25.84-.17.25-.48.53-.93.84-.67.45-1.47.82-2.41,1.09-.94.27-1.89.41-2.84.41-1.62,0-3.06-.37-4.31-1.11Z"/>
    <path class="cls-1" d="M109.23,335.8c-1.25-.74-2.22-1.79-2.9-3.16-.68-1.37-1.02-2.96-1.02-4.77s.34-3.4,1.02-4.77c.68-1.37,1.64-2.42,2.9-3.16,1.25-.74,2.7-1.11,4.34-1.11s3.1.37,4.36,1.11c1.26.74,2.23,1.79,2.91,3.16.68,1.37,1.02,2.96,1.02,4.77s-.34,3.4-1.02,4.77c-.68,1.37-1.65,2.43-2.91,3.16-1.26.74-2.72,1.11-4.36,1.11s-3.09-.37-4.34-1.11ZM117.52,332.82c.92-1.13,1.38-2.78,1.38-4.95s-.46-3.76-1.39-4.91c-.93-1.16-2.24-1.73-3.93-1.73s-3,.58-3.93,1.73c-.93,1.16-1.39,2.79-1.39,4.91s.46,3.79,1.38,4.93c.92,1.14,2.23,1.72,3.95,1.72s3.03-.57,3.95-1.7Z"/>
    <path class="cls-1" d="M151.36,325.72v9.69c0,.45-.13.8-.39,1.05-.26.25-.61.38-1.04.38s-.78-.12-1.05-.38c-.27-.25-.41-.6-.41-1.05v-9.61c0-1.6-.29-2.75-.86-3.47-.57-.72-1.47-1.07-2.68-1.07-1.45,0-2.6.49-3.43,1.47-.83.98-1.25,2.3-1.25,3.97v8.72c0,.45-.14.8-.41,1.05-.27.25-.63.38-1.05.38s-.77-.12-1.04-.38c-.26-.25-.39-.6-.39-1.05v-9.61c0-1.6-.29-2.75-.86-3.47-.57-.72-1.48-1.07-2.72-1.07-1.43,0-2.57.49-3.41,1.47-.85.98-1.27,2.3-1.27,3.97v8.72c0,.45-.13.8-.39,1.05s-.61.38-1.04.38-.78-.12-1.05-.38c-.27-.25-.41-.6-.41-1.05v-15.08c0-.43.14-.77.41-1.04.27-.26.63-.39,1.05-.39.4,0,.74.13,1,.38.26.25.39.59.39,1.02v1.72c.52-1.02,1.25-1.81,2.18-2.36.93-.55,2-.82,3.22-.82,2.72,0,4.49,1.14,5.33,3.43.5-1.05,1.26-1.88,2.29-2.5,1.02-.62,2.19-.93,3.5-.93,3.86,0,5.79,2.3,5.79,6.9Z"/>
    <path class="cls-1" d="M156.72,314.64c-.36-.33-.54-.77-.54-1.32s.18-.95.54-1.29c.36-.33.82-.5,1.39-.5s1.04.17,1.39.5c.36.33.54.76.54,1.29s-.18.99-.54,1.32c-.36.33-.82.5-1.39.5s-1.04-.17-1.39-.5ZM157.06,336.46c-.27-.25-.41-.6-.41-1.05v-15.08c0-.45.14-.8.41-1.05.27-.25.63-.38,1.05-.38s.77.13,1.04.38c.26.25.39.6.39,1.05v15.08c0,.48-.13.83-.39,1.07s-.61.36-1.04.36-.78-.12-1.05-.38Z"/>
    <path class="cls-1" d="M179.09,332.94c.19.21.29.49.29.82,0,.6-.42,1.14-1.25,1.64-.86.5-1.76.88-2.72,1.13-.95.25-1.88.38-2.79.38-2.69,0-4.82-.8-6.38-2.39s-2.34-3.8-2.34-6.61c0-1.79.34-3.37,1.04-4.74.69-1.37,1.66-2.44,2.91-3.2,1.25-.76,2.67-1.14,4.27-1.14,2.26,0,4.06.74,5.4,2.22,1.33,1.48,2,3.48,2,6,0,.48-.1.82-.29,1.04s-.5.32-.93.32h-11.51c.21,4.1,2.16,6.15,5.83,6.15.93,0,1.73-.12,2.39-.38.67-.25,1.38-.59,2.14-1.02.62-.36,1.04-.54,1.25-.54.26,0,.49.11.68.32ZM168.49,322.5c-.92.95-1.46,2.3-1.63,4.04h10.12c-.05-1.76-.49-3.12-1.32-4.06-.83-.94-2-1.41-3.5-1.41s-2.75.48-3.66,1.43Z"/>
    <path class="cls-1" d="M198.79,325.72v9.69c0,.45-.13.8-.38,1.05-.25.25-.6.38-1.05.38s-.81-.12-1.07-.38-.39-.6-.39-1.05v-9.51c0-1.62-.32-2.8-.95-3.54-.63-.74-1.64-1.11-3.02-1.11-1.6,0-2.87.49-3.82,1.47-.95.98-1.43,2.3-1.43,3.97v8.72c0,.45-.13.8-.38,1.05-.25.25-.6.38-1.05.38s-.81-.12-1.07-.38c-.26-.25-.39-.6-.39-1.05v-15.08c0-.43.13-.77.39-1.04.26-.26.62-.39,1.07-.39.43,0,.77.13,1.02.39.25.26.38.6.38,1v1.82c.57-1.07,1.37-1.89,2.39-2.45,1.02-.56,2.19-.84,3.5-.84,4.17,0,6.25,2.3,6.25,6.9Z"/>
    <path class="cls-1" d="M217.8,334.67c.21.2.32.48.32.84s-.11.64-.32.84c-.21.2-.52.3-.93.3h-12.51c-.41,0-.74-.12-1-.38s-.39-.55-.39-.91c0-.38.14-.75.43-1.11l10.58-12.72h-9.79c-.41,0-.72-.1-.95-.3-.23-.2-.34-.47-.34-.8,0-.36.11-.64.34-.86.23-.21.54-.32.95-.32h12.12c.43,0,.77.12,1.04.38.26.25.39.55.39.91,0,.38-.14.75-.43,1.11l-10.62,12.72h10.19c.4,0,.71.1.93.3Z"/>
    <path class="cls-1" d="M235.53,325.68v9.72c0,.43-.12.77-.38,1.04-.25.26-.59.39-1.02.39s-.77-.13-1.04-.39c-.26-.26-.39-.61-.39-1.04v-1.72c-.45,1.02-1.14,1.82-2.07,2.38-.93.56-2,.84-3.22.84-1.12,0-2.15-.23-3.09-.68-.94-.45-1.69-1.08-2.23-1.89-.55-.81-.82-1.7-.82-2.68,0-1.31.33-2.33,1-3.06.67-.73,1.76-1.25,3.29-1.57,1.52-.32,3.65-.48,6.36-.48h.79v-1.18c0-1.43-.29-2.48-.88-3.15-.58-.67-1.53-1-2.84-1-1.62,0-3.26.44-4.93,1.32-.64.41-1.1.61-1.36.61-.29,0-.52-.11-.71-.32-.19-.21-.29-.49-.29-.82s.1-.63.3-.88c.2-.25.53-.51.98-.77.83-.48,1.78-.85,2.84-1.13,1.06-.27,2.11-.41,3.16-.41,4.36,0,6.54,2.29,6.54,6.86ZM231.33,333.17c.92-.96,1.38-2.21,1.38-3.73v-1.04h-.64c-2.1,0-3.69.09-4.79.27s-1.88.48-2.34.89c-.46.42-.7,1.03-.7,1.84,0,.93.34,1.7,1.02,2.31.68.61,1.53.91,2.56.91,1.43,0,2.6-.48,3.52-1.45Z"/>
    <path class="cls-1" d="M263.7,325.68v9.72c0,.43-.12.77-.38,1.04-.25.26-.59.39-1.02.39s-.77-.13-1.04-.39c-.26-.26-.39-.61-.39-1.04v-1.72c-.45,1.02-1.14,1.82-2.07,2.38-.93.56-2,.84-3.22.84-1.12,0-2.15-.23-3.09-.68-.94-.45-1.69-1.08-2.23-1.89-.55-.81-.82-1.7-.82-2.68,0-1.31.33-2.33,1-3.06.67-.73,1.76-1.25,3.29-1.57,1.52-.32,3.65-.48,6.36-.48h.79v-1.18c0-1.43-.29-2.48-.88-3.15-.58-.67-1.53-1-2.84-1-1.62,0-3.26.44-4.93,1.32-.64.41-1.1.61-1.36.61-.29,0-.52-.11-.71-.32-.19-.21-.29-.49-.29-.82s.1-.63.3-.88c.2-.25.53-.51.98-.77.83-.48,1.78-.85,2.84-1.13,1.06-.27,2.11-.41,3.16-.41,4.36,0,6.54,2.29,6.54,6.86ZM259.5,333.17c.92-.96,1.38-2.21,1.38-3.73v-1.04h-.64c-2.1,0-3.69.09-4.79.27s-1.88.48-2.34.89c-.46.42-.7,1.03-.7,1.84,0,.93.34,1.7,1.02,2.31.68.61,1.53.91,2.56.91,1.43,0,2.6-.48,3.52-1.45Z"/>
    <path class="cls-1" d="M284,325.72v9.69c0,.45-.12.8-.37,1.05-.25.25-.6.38-1.05.38s-.81-.12-1.07-.38c-.26-.25-.39-.6-.39-1.05v-9.51c0-1.62-.32-2.8-.95-3.54-.63-.74-1.64-1.11-3.02-1.11-1.6,0-2.87.49-3.82,1.47-.95.98-1.43,2.3-1.43,3.97v8.72c0,.45-.12.8-.37,1.05-.25.25-.6.38-1.05.38s-.81-.12-1.07-.38c-.26-.25-.39-.6-.39-1.05v-15.08c0-.43.13-.77.39-1.04.26-.26.62-.39,1.07-.39.43,0,.77.13,1.02.39.25.26.37.6.37,1v1.82c.57-1.07,1.37-1.89,2.39-2.45,1.03-.56,2.19-.84,3.5-.84,4.17,0,6.25,2.3,6.25,6.9Z"/>
    <path class="cls-1" d="M298.58,335.69c0,.41-.15.71-.45.91-.3.2-.74.28-1.34.23l-.97-.07c-1.91-.14-3.31-.71-4.22-1.72-.91-1-1.36-2.51-1.36-4.54v-8.97h-2.39c-.41,0-.72-.1-.95-.3-.23-.2-.34-.47-.34-.8,0-.36.11-.64.34-.86.23-.21.54-.32.95-.32h2.39v-4.04c0-.45.13-.8.39-1.05.26-.25.62-.38,1.07-.38.43,0,.77.12,1.04.38.26.25.39.6.39,1.05v4.04h3.97c.38,0,.69.11.91.32.23.21.34.5.34.86,0,.33-.11.6-.34.8-.23.2-.53.3-.91.3h-3.97v9.11c0,1.31.27,2.26.8,2.84.54.58,1.34.91,2.41.98l.97.07c.83.07,1.25.45,1.25,1.14Z"/>
    <path class="cls-1" d="M315.6,332.94c.19.21.29.49.29.82,0,.6-.42,1.14-1.25,1.64-.86.5-1.76.88-2.72,1.13-.95.25-1.88.38-2.79.38-2.69,0-4.82-.8-6.38-2.39-1.56-1.6-2.34-3.8-2.34-6.61,0-1.79.35-3.37,1.04-4.74.69-1.37,1.66-2.44,2.91-3.2,1.25-.76,2.67-1.14,4.27-1.14,2.26,0,4.06.74,5.4,2.22,1.33,1.48,2,3.48,2,6,0,.48-.09.82-.29,1.04s-.5.32-.93.32h-11.51c.21,4.1,2.16,6.15,5.83,6.15.93,0,1.73-.12,2.4-.38.67-.25,1.38-.59,2.14-1.02.62-.36,1.04-.54,1.25-.54.26,0,.49.11.68.32ZM305,322.5c-.92.95-1.46,2.3-1.63,4.04h10.12c-.05-1.76-.49-3.12-1.32-4.06-.83-.94-2-1.41-3.5-1.41s-2.75.48-3.66,1.43Z"/>
    <path class="cls-1" d="M323.01,336.52c-.99-.26-1.86-.63-2.63-1.11-.43-.29-.73-.55-.91-.8-.18-.25-.27-.55-.27-.91,0-.31.09-.57.27-.77.18-.2.41-.3.7-.3s.7.18,1.25.54c.71.43,1.42.77,2.13,1.02.7.25,1.58.38,2.63.38,1.29,0,2.29-.23,3-.68.72-.45,1.07-1.11,1.07-1.97,0-.52-.13-.95-.39-1.27-.26-.32-.71-.61-1.36-.86-.64-.25-1.58-.51-2.82-.77-2.1-.45-3.6-1.06-4.5-1.82-.91-.76-1.36-1.8-1.36-3.11,0-1.02.29-1.93.86-2.72.57-.79,1.36-1.41,2.38-1.86,1.01-.45,2.16-.68,3.45-.68.93,0,1.83.12,2.7.38s1.64.6,2.31,1.05c.81.57,1.22,1.17,1.22,1.79,0,.31-.1.57-.29.79-.19.21-.42.32-.68.32-.29,0-.71-.2-1.29-.61-.67-.43-1.3-.76-1.89-1-.6-.24-1.33-.36-2.22-.36-1.12,0-2.02.25-2.7.75-.68.5-1.02,1.17-1.02,2,0,.52.12.95.37,1.27.25.32.67.61,1.25.86.58.25,1.42.5,2.52.73,1.62.36,2.88.75,3.77,1.18.89.43,1.53.95,1.91,1.57.38.62.57,1.41.57,2.36,0,1.5-.63,2.71-1.89,3.63-1.26.92-2.93,1.38-5,1.38-1.1,0-2.14-.13-3.13-.39Z"/>
    <path class="cls-1" d="M361.7,311.67c.26.26.39.6.39,1v22.73c0,.43-.13.77-.39,1.04-.26.26-.62.39-1.07.39s-.8-.13-1.05-.39-.37-.61-.37-1.04v-1.93c-.52,1.1-1.29,1.94-2.31,2.54-1.01.6-2.2.89-3.56.89-1.53,0-2.87-.38-4.04-1.14-1.17-.76-2.07-1.83-2.72-3.2-.64-1.37-.97-2.96-.97-4.77s.32-3.36.97-4.72c.64-1.36,1.55-2.41,2.72-3.15,1.17-.74,2.51-1.11,4.04-1.11,1.36,0,2.54.3,3.56.89,1.01.6,1.78,1.44,2.31,2.54v-9.58c0-.43.12-.77.37-1.02s.6-.38,1.05-.38.81.13,1.07.39ZM357.82,332.78c.92-1.16,1.38-2.79,1.38-4.91s-.46-3.75-1.38-4.9c-.92-1.14-2.22-1.72-3.91-1.72s-3.01.57-3.95,1.72c-.94,1.14-1.41,2.75-1.41,4.83s.47,3.77,1.41,4.95c.94,1.18,2.26,1.77,3.95,1.77s3-.58,3.91-1.73Z"/>
    <path class="cls-1" d="M381.61,332.94c.19.21.29.49.29.82,0,.6-.42,1.14-1.25,1.64-.86.5-1.76.88-2.72,1.13-.95.25-1.88.38-2.79.38-2.69,0-4.82-.8-6.38-2.39-1.56-1.6-2.34-3.8-2.34-6.61,0-1.79.35-3.37,1.04-4.74.69-1.37,1.66-2.44,2.91-3.2,1.25-.76,2.67-1.14,4.27-1.14,2.26,0,4.06.74,5.4,2.22,1.33,1.48,2,3.48,2,6,0,.48-.09.82-.29,1.04s-.5.32-.93.32h-11.51c.21,4.1,2.16,6.15,5.83,6.15.93,0,1.73-.12,2.4-.38.67-.25,1.38-.59,2.14-1.02.62-.36,1.04-.54,1.25-.54.26,0,.49.11.68.32ZM371.01,322.5c-.92.95-1.46,2.3-1.63,4.04h10.12c-.05-1.76-.49-3.12-1.32-4.06-.83-.94-2-1.41-3.5-1.41s-2.75.48-3.66,1.43Z"/>
    <path class="cls-1" d="M410.53,325.72v9.69c0,.45-.12.8-.37,1.05-.25.25-.6.38-1.05.38s-.81-.12-1.07-.38c-.26-.25-.39-.6-.39-1.05v-9.51c0-1.62-.32-2.8-.95-3.54-.63-.74-1.64-1.11-3.02-1.11-1.6,0-2.87.49-3.82,1.47-.95.98-1.43,2.3-1.43,3.97v8.72c0,.45-.12.8-.37,1.05-.25.25-.6.38-1.05.38s-.81-.12-1.07-.38c-.26-.25-.39-.6-.39-1.05v-15.08c0-.43.13-.77.39-1.04.26-.26.62-.39,1.07-.39.43,0,.77.13,1.02.39.25.26.37.6.37,1v1.82c.57-1.07,1.37-1.89,2.39-2.45,1.03-.56,2.19-.84,3.5-.84,4.17,0,6.25,2.3,6.25,6.9Z"/>
    <path class="cls-1" d="M429.47,325.68v9.72c0,.43-.12.77-.38,1.04-.25.26-.59.39-1.02.39s-.77-.13-1.04-.39c-.26-.26-.39-.61-.39-1.04v-1.72c-.45,1.02-1.14,1.82-2.07,2.38-.93.56-2,.84-3.22.84-1.12,0-2.15-.23-3.09-.68-.94-.45-1.69-1.08-2.23-1.89-.55-.81-.82-1.7-.82-2.68,0-1.31.33-2.33,1-3.06.67-.73,1.76-1.25,3.29-1.57,1.52-.32,3.65-.48,6.36-.48h.79v-1.18c0-1.43-.29-2.48-.88-3.15-.58-.67-1.53-1-2.84-1-1.62,0-3.26.44-4.93,1.32-.64.41-1.1.61-1.36.61-.29,0-.52-.11-.71-.32-.19-.21-.29-.49-.29-.82s.1-.63.3-.88c.2-.25.53-.51.98-.77.83-.48,1.78-.85,2.84-1.13,1.06-.27,2.11-.41,3.16-.41,4.36,0,6.54,2.29,6.54,6.86ZM425.27,333.17c.92-.96,1.38-2.21,1.38-3.73v-1.04h-.64c-2.1,0-3.69.09-4.79.27s-1.88.48-2.34.89c-.46.42-.7,1.03-.7,1.84,0,.93.34,1.7,1.02,2.31.68.61,1.53.91,2.56.91,1.43,0,2.6-.48,3.52-1.45Z"/>
    <path class="cls-1" d="M437.64,335.8c-1.25-.74-2.22-1.79-2.9-3.15-.68-1.36-1.02-2.93-1.02-4.72s.35-3.37,1.05-4.75c.7-1.38,1.69-2.45,2.95-3.22,1.26-.76,2.72-1.14,4.36-1.14.91,0,1.8.12,2.7.38s1.67.61,2.34,1.09c.43.29.73.57.91.84.18.27.27.58.27.91s-.09.61-.27.82c-.18.21-.41.32-.7.32-.17,0-.35-.05-.54-.14-.19-.1-.35-.19-.48-.29-.13-.09-.22-.15-.27-.18-.62-.4-1.21-.73-1.77-.96-.56-.24-1.24-.36-2.05-.36-1.74,0-3.09.59-4.06,1.77-.96,1.18-1.45,2.82-1.45,4.91s.48,3.72,1.45,4.86c.97,1.14,2.32,1.72,4.06,1.72.81,0,1.51-.12,2.09-.36.58-.24,1.17-.56,1.77-.96.26-.17.51-.31.75-.43s.44-.18.61-.18c.26,0,.48.11.66.32.18.21.27.49.27.82,0,.31-.08.59-.25.84-.17.25-.48.53-.93.84-.67.45-1.47.82-2.41,1.09s-1.89.41-2.84.41c-1.62,0-3.06-.37-4.31-1.11Z"/>
    <path class="cls-1" d="M466.04,332.94c.19.21.29.49.29.82,0,.6-.42,1.14-1.25,1.64-.86.5-1.76.88-2.72,1.13-.95.25-1.88.38-2.79.38-2.69,0-4.82-.8-6.38-2.39-1.56-1.6-2.34-3.8-2.34-6.61,0-1.79.35-3.37,1.04-4.74.69-1.37,1.66-2.44,2.91-3.2,1.25-.76,2.67-1.14,4.27-1.14,2.26,0,4.06.74,5.4,2.22,1.33,1.48,2,3.48,2,6,0,.48-.09.82-.29,1.04s-.5.32-.93.32h-11.51c.21,4.1,2.16,6.15,5.83,6.15.93,0,1.73-.12,2.4-.38.67-.25,1.38-.59,2.14-1.02.62-.36,1.04-.54,1.25-.54.26,0,.49.11.68.32ZM455.44,322.5c-.92.95-1.46,2.3-1.63,4.04h10.12c-.05-1.76-.49-3.12-1.32-4.06-.83-.94-2-1.41-3.5-1.41s-2.75.48-3.66,1.43Z"/>
    <path class="cls-1" d="M480.83,320.11c0,.38-.11.69-.32.91-.21.23-.58.36-1.11.41l-1.07.11c-1.6.14-2.78.71-3.56,1.7-.77.99-1.16,2.15-1.16,3.49v8.69c0,.48-.13.83-.39,1.07-.26.24-.61.36-1.04.36s-.78-.12-1.05-.38c-.27-.25-.41-.6-.41-1.05v-15.08c0-.45.14-.8.43-1.05.29-.25.63-.38,1.04-.38.38,0,.7.13.96.38.26.25.39.59.39,1.02v2c.5-1.05,1.21-1.85,2.13-2.39.92-.55,1.97-.87,3.16-.97l.5-.04c1-.07,1.5.33,1.5,1.22Z"/>
  </g>
  <g>
    <path class="cls-2" d="M373.24,46.8c14,9.25,18.89,23.98,17.38,40.44-.1,1.08-1.43,2.31-.56,3.86,3.4-2.31,6.64-4.73,10.38-6.53,20.4-9.83,42.41-.24,52.14,19.27,15.69,31.47-4.91,69.11-33.98,84-25.6,13.11-57.91,2.38-79.42-14.58-31.74-25.03-55.72-78.59-27.06-114.54,14.16-17.76,41.16-25.12,61.12-11.93ZM371.82,53.29c-17.53-14.38-41.99-6.79-54.47,10.42-42.11,58.08,62.8,165.03,117.76,99.89,16.07-19.05,23.05-50.71,1.79-68.97-28.45-24.44-64.8,16.51-53.34,45.27,8.52,21.4,39.22,10.14,32.43-10.61-3.29-10.03-18.33-9.55-22.14.91-.66,1.81-.63,6.81-4,4.91-3.09-1.74.81-9.9,2.62-12,12.28-14.19,33.72-2.23,29.72,16.14-3.79,17.42-24.79,24.2-38.31,12.59-9.28-7.97-10.66-20.47-8.84-31.94l2.54-11.17c-10.6,8.26-27.34,9.26-30.04,25.07-3.68,21.61,20.8,34.16,38.78,36.08,2.25.24,8.22-.57,9.14,1.45,1.97,4.34-9.22,3.01-11.38,2.79-20.02-2-44.55-17.23-42.43-40.1,1.95-21.12,23.09-20.49,34.4-33.31,12.51-14.19,10.16-35.63-4.22-47.43Z"/>
    <g>
      <rect class="cls-3" x="277.77" y="129.9" width="12.61" height="12.61" rx="6.31" ry="6.31" transform="translate(-18.16 47.29) rotate(-9.22)"/>
      <rect class="cls-3" x="299.48" y="29.75" width="12.61" height="12.61" rx="6.31" ry="6.31" transform="translate(-1.83 49.48) rotate(-9.22)"/>
      <rect class="cls-3" x="271.15" y="70.79" width="19.03" height="19.03" rx="9.52" ry="9.52" transform="translate(-9.24 46.02) rotate(-9.22)"/>
      <rect class="cls-3" x="336.99" y="0" width="22.62" height="22.62" rx="11.31" ry="11.31" transform="translate(2.69 55.97) rotate(-9.22)"/>
      <rect class="cls-3" x="395.73" y="27.64" width="12.61" height="12.61" rx="6.31" ry="6.31" transform="translate(-.24 64.88) rotate(-9.22)"/>
      <rect class="cls-3" x="427.97" y="52.34" width="19.03" height="19.03" rx="9.52" ry="9.52" transform="translate(-4.26 70.92) rotate(-9.22)"/>
      <rect class="cls-3" x="468.2" y="98.98" width="12.61" height="12.61" rx="6.31" ry="6.31" transform="translate(-10.74 77.42) rotate(-9.22)"/>
      <rect class="cls-3" x="459.42" y="151.52" width="19.03" height="19.03" rx="9.52" ry="9.52" transform="translate(-19.75 77.24) rotate(-9.22)"/>
    </g>
  </g>
</svg>